<?xml version="1.0" encoding="utf-8"?>
<!-- Generator: Adobe Illustrator 27.7.0, SVG Export Plug-In . SVG Version: 6.00 Build 0)  -->
<svg version="1.1" id="Calque_1" xmlns="http://www.w3.org/2000/svg" xmlns:xlink="http://www.w3.org/1999/xlink" x="0px" y="0px"
	 viewBox="0 0 48 48" style="enable-background:new 0 0 48 48;" xml:space="preserve">
<style type="text/css">
	.st0{fill:#FFFFFF;}
</style>
<path class="st0" d="M15.3,39.4c-0.7,0-1.4-0.3-1.9-0.8c-0.5-0.5-0.8-1.2-0.8-1.9V11.5h-2v-1.1h7.2V9.2h12.4v1.2h7.2v1.1h-2v25.2
	c0,0.8-0.3,1.4-0.8,1.9c-0.5,0.5-1.2,0.8-1.9,0.8H15.3z M34.3,11.5H13.7v25.2c0,0.5,0.2,0.8,0.5,1.1s0.7,0.5,1.1,0.5h17.4
	c0.4,0,0.8-0.2,1.1-0.5c0.3-0.3,0.5-0.7,0.5-1.1V11.5z M20.2,34.2h1.1V15.6h-1.1V34.2z M26.7,34.2h1.1V15.6h-1.1V34.2z M13.7,11.5
	v26.8V11.5z"/>
</svg>
