<?xml version="1.0" encoding="UTF-8"?>
<svg id="Calque_2" data-name="Calque 2" xmlns="http://www.w3.org/2000/svg" xmlns:xlink="http://www.w3.org/1999/xlink" viewBox="0 0 313 340.47">
  <defs>
    <style>
      .cls-1 {
        fill: #fff;
      }

      .cls-2 {
        fill: #e2278e;
      }

      .cls-3 {
        fill: #a52b74;
      }

      .cls-4 {
        fill: url(#Dégradé_sans_nom_3);
      }
    </style>
    <linearGradient id="Dégradé_sans_nom_3" data-name="Dégradé sans nom 3" x1="5.41" y1="68.97" x2="307.51" y2="68.97" gradientUnits="userSpaceOnUse">
      <stop offset="0" stop-color="#a52b74"/>
      <stop offset="1" stop-color="#e2278e"/>
    </linearGradient>
  </defs>
  <path class="cls-3" d="m5.24,86.22l142.28,64.41c1.33.6,2.18,1.92,2.18,3.38v182.71c0,2.7-2.8,4.5-5.25,3.37L2.17,274.99c-1.32-.6-2.17-1.92-2.17-3.37V89.6c0-2.7,2.78-4.49,5.24-3.38Z"/>
  <path class="cls-2" d="m161.64,154.03l.03,182.73c0,2.7,2.78,4.49,5.24,3.38l143.91-65.13c1.33-.6,2.18-1.92,2.18-3.38V89.58c0-2.69-2.77-4.49-5.23-3.39l-143.94,64.45c-1.34.6-2.19,1.92-2.19,3.39Z"/>
  <path class="cls-4" d="m157.2,137.63l148.08-64.54c2.96-1.29,2.97-5.48.03-6.79L157.23.32c-.97-.43-2.07-.43-3.03,0L7.6,66.3c-2.93,1.32-2.91,5.49.03,6.78l146.59,64.54c.95.42,2.03.42,2.98,0Z"/>
  <g>
    <path class="cls-1" d="m37.55,144.21c-2.87-1.28-3.83-1.65-5.57-2.2v-9.96c2.08,1.21,3.43,1.87,7.37,3.62l4.5,2c2.87,1.28,4.95,2.15,7.43,3.03-.28,2.01-.39,3.82-.39,7.48v6.3c0,4,.06,5.82.39,8.56-3.1.59-4.62.65-7.15.36-3.66-.39-7.77-1.54-11.93-3.4-7.15-3.18-12.72-7.63-16.72-13.47-4.28-6.18-6.64-13.93-6.64-21.65,0-14.8,8.95-20.22,23.13-13.9,7.04,3.13,12.38,7.71,16.1,13.87,1.52,2.42,2.42,4.51,3.32,7.61l-11.48-2.47c-.62-2.3-1.3-3.67-2.53-5.18-1.46-1.83-3.32-3.22-5.68-4.28-7.2-3.21-11.15.27-11.15,9.73,0,5.24,1.18,9.81,3.43,13.29,1.8,2.77,4.56,5.07,8.11,6.65,2.98,1.33,5.4,1.79,8.16,1.61v-6.42l-2.7-1.2Z"/>
    <path class="cls-1" d="m65.92,173.95c-3.88-1.73-6.19-2.7-8.33-3.54.34-1.82.45-4.25.45-8.02v-29.72c0-3.94-.11-6.41-.45-9.26l12.27,5.46c-.39,2.75-.45,4.3-.45,8.69v27.92l13.62,6.07c4.78,2.13,6.7,2.93,9.34,3.77v10.81c-2.08-1.21-4.84-2.55-9.34-4.55l-17.11-7.62Z"/>
    <path class="cls-1" d="m104.54,191.15c-4.28-1.9-5.91-2.58-8.33-3.54.34-2.27.45-4.13.45-8.07v-30.79c0-2.98-.11-5.45-.45-8.31,2.87,1.45,3.66,1.8,8.27,3.85l14.75,6.57c9.12,4.06,14.47,10.83,14.47,18.26,0,3.43-1.13,5.63-3.26,6.6-1.24.52-2.25.63-4.56.45,2.76,1.85,4.22,3.17,5.85,5.31,2.42,3.22,3.66,6.81,3.66,10.52,0,8.11-5.74,10.33-15.53,5.97l-15.31-6.82Zm13.06-22.95c2.98,1.33,4.84.41,4.84-2.35s-1.75-5.11-4.95-6.54l-9.79-4.36v8.84l9.91,4.41Zm-9.91,15.07l10.36,4.61c3.55,1.58,5.68.56,5.68-2.76s-2.14-6.13-5.74-7.74l-10.3-4.59v10.47Z"/>
  </g>
  <g>
    <path class="cls-1" d="m8.91,173.86c.13-.87.17-1.79.17-3.03v-11.36c0-1.13-.04-2.1-.17-3.14.99.48,1.74.84,3.09,1.44l4.6,2.05c4.16,1.85,6.45,4.87,6.45,8.52s-2.39,4.9-6.47,3.08l-3.32-1.48v2.69c0,1.24.06,2.3.17,3.25l-4.52-2.01Zm7.48-6.1c1.47.65,2.33.22,2.33-1.23s-.82-2.57-2.33-3.24l-3.13-1.39v4.47l3.13,1.39Z"/>
    <path class="cls-1" d="m35.54,185.72c-.13-.73-.38-1.7-1.03-3.73-.67-2.13-.92-2.72-1.45-3.42-.44-.6-.97-1-1.64-1.3l-2.14-.95v3.44c0,1.43.04,2.22.17,3.25l-4.52-2.01c.13-.91.17-1.52.17-3.07v-11.3c0-1.3-.04-2.1-.17-3.16.92.45,1.7.82,3.13,1.46l5.46,2.43c3.4,1.52,5.38,4.16,5.38,7.18,0,1.49-.42,2.48-1.24,2.89-.52.25-.97.28-2,.16,1.07.81,1.56,1.51,2.23,3.3.32.81.61,1.66,1.55,4.35.23.69.48,1.33,1.01,2.67l-4.92-2.19Zm-2.98-11.53c1.24.55,2,.13,2-1.06s-.67-2.08-1.97-2.66l-3.3-1.47v3.74l3.28,1.46Z"/>
    <path class="cls-1" d="m55.37,194.69c-.9-.51-1.66-.89-3.47-1.69l-6.62-2.95c-1.6-.71-2.19-.95-3.09-1.31.13-.78.17-1.54.17-2.99v-11.46c0-1.3-.04-2.06-.17-3.14.86.43,1.45.71,3.09,1.44l6.7,2.98c1.43.64,2.14.91,3.13,1.25v3.93c-.97-.54-1.72-.91-3.13-1.54l-5.46-2.43v3.09l4.54,2.02c1.39.62,1.89.82,3.15,1.26v3.88c-.99-.54-1.7-.9-3.15-1.55l-4.54-2.02v3.53l5.42,2.41c1.6.71,2.52,1.08,3.42,1.38v3.93Z"/>
    <path class="cls-1" d="m64.81,193.65q.17.64.4,1.63c.25-.81.29-.92.4-1.27l3.05-8.74c.27-.84.42-1.37.48-2.05l4.94,2.2c-.29.5-.48.9-1.01,2.11l-4.45,10.66c-.36.87-.57,1.49-.67,1.97l-5.46-2.43c-.11-.59-.32-1.4-.67-2.57l-4.47-14.63c-.42-1.4-.63-2.02-.99-3l4.92,2.19c.08.71.27,1.61.5,2.49l3.05,11.46Z"/>
    <path class="cls-1" d="m80.14,188.11c-.13.8-.17,1.5-.17,3.03v11.25c0,1.45.04,2.24.17,3.18l-4.62-2.06c.13-.76.17-1.63.17-3.03v-11.25c0-1.57-.04-2.2-.17-3.18l4.62,2.06Z"/>
    <path class="cls-1" d="m95.92,212.75c-.9-.51-1.66-.89-3.47-1.69l-6.62-2.95c-1.6-.71-2.18-.95-3.09-1.31.13-.78.17-1.54.17-2.99v-11.46c0-1.3-.04-2.05-.17-3.14.86.43,1.45.71,3.09,1.44l6.7,2.98c1.43.64,2.14.91,3.13,1.25v3.93c-.97-.54-1.72-.91-3.13-1.54l-5.46-2.43v3.09l4.54,2.02c1.39.62,1.89.82,3.15,1.26v3.88c-.99-.54-1.7-.91-3.15-1.55l-4.54-2.02v3.53l5.42,2.41c1.6.71,2.52,1.08,3.42,1.38v3.93Z"/>
    <path class="cls-1" d="m111.04,219.33c-.08-.71-.23-1.51-.44-2.44l-1.6-6.88c-.21-.91-.38-1.95-.59-3.43-.13.8-.38,2.01-.63,2.89l-1.55,5.5c-.27.93-.4,1.48-.46,2.02l-4.18-1.86c-.11-.66-.21-1.14-.53-2.5l-3.36-14.09c-.29-1.2-.59-2.3-.8-2.96l4.79,2.13c.02.77.13,1.48.29,2.44l1.34,6.98c.06.34.21,1.4.46,3.17.31-1.62.46-2.31.59-2.7l1.68-5.76c.25-.83.38-1.43.46-1.98l3.74,1.67c.08.58.21,1.23.48,2.34l1.7,7.22c.17.75.31,1.5.59,3.33q.04-.38.17-1.21c.06-.43.21-1.38.29-1.67l1.32-5.67c.21-.87.29-1.44.32-2.17l4.77,2.12c-.21.47-.5,1.33-.78,2.26l-3.36,11.08c-.27.87-.46,1.58-.53,2.05l-4.2-1.87Z"/>
  </g>
</svg>