<?xml version="1.0" encoding="UTF-8"?>
<svg id="Calque_1" data-name="Calque 1" xmlns="http://www.w3.org/2000/svg" xmlns:xlink="http://www.w3.org/1999/xlink" viewBox="0 0 34.26 37.26">
  <defs>
    <style>
      .cls-1 {
        fill: #fff;
      }

      .cls-2 {
        fill: #dc318a;
      }

      .cls-3 {
        fill: #a52e75;
      }

      .cls-4 {
        fill: url(#Dégradé_sans_nom_3);
      }
    </style>
    <linearGradient id="Dégradé_sans_nom_3" data-name="Dégradé sans nom 3" x1=".59" y1="7.55" x2="33.65" y2="7.55" gradientUnits="userSpaceOnUse">
      <stop offset="0" stop-color="#a52e75"/>
      <stop offset="1" stop-color="#dc318a"/>
    </linearGradient>
  </defs>
  <path class="cls-3" d="m.57,9.44l15.57,7.05c.15.07.24.21.24.37v20c0,.3-.31.49-.58.37L.24,30.1c-.14-.07-.24-.21-.24-.37V9.81c0-.3.3-.49.57-.37Z"/>
  <path class="cls-2" d="m17.69,16.86v20c0,.3.31.49.58.37l15.75-7.13c.15-.07.24-.21.24-.37V9.8c0-.29-.3-.49-.57-.37l-15.75,7.05c-.15.07-.24.21-.24.37Z"/>
  <path class="cls-4" d="m17.2,15.06l16.21-7.06c.32-.14.33-.6,0-.74L17.21.04c-.11-.05-.23-.05-.33,0L.83,7.26c-.32.14-.32.6,0,.74l16.04,7.06c.1.05.22.05.33,0Z"/>
  <g>
    <path class="cls-1" d="m4.11,15.78c-.31-.14-.42-.18-.61-.24v-1.09c.23.13.38.2.81.4l.49.22c.31.14.54.24.81.33-.03.22-.04.42-.04.82v.69c0,.44,0,.64.04.94-.34.06-.51.07-.78.04-.4-.04-.85-.17-1.31-.37-.78-.35-1.39-.84-1.83-1.47-.47-.68-.73-1.52-.73-2.37,0-1.62.98-2.21,2.53-1.52.77.34,1.36.84,1.76,1.52.17.27.26.49.36.83l-1.26-.27c-.07-.25-.14-.4-.28-.57-.16-.2-.36-.35-.62-.47-.79-.35-1.22.03-1.22,1.06,0,.57.13,1.07.38,1.45.2.3.5.55.89.73.33.15.59.2.89.18v-.7l-.3-.13Z"/>
    <path class="cls-1" d="m7.21,19.04c-.43-.19-.68-.3-.91-.39.04-.2.05-.46.05-.88v-3.25c0-.43-.01-.7-.05-1.01l1.34.6c-.04.3-.05.47-.05.95v3.06l1.49.66c.52.23.73.32,1.02.41v1.18c-.23-.13-.53-.28-1.02-.5l-1.87-.83Z"/>
    <path class="cls-1" d="m11.44,20.92c-.47-.21-.65-.28-.91-.39.04-.25.05-.45.05-.88v-3.37c0-.33-.01-.6-.05-.91.31.16.4.2.91.42l1.61.72c1,.44,1.58,1.19,1.58,2,0,.38-.12.62-.36.72-.14.06-.25.07-.5.05.3.2.46.35.64.58.26.35.4.75.4,1.15,0,.89-.63,1.13-1.7.65l-1.68-.75Zm1.43-2.51c.33.15.53.04.53-.26s-.19-.56-.54-.72l-1.07-.48v.97l1.08.48Zm-1.08,1.65l1.13.5c.39.17.62.06.62-.3s-.23-.67-.63-.85l-1.13-.5v1.15Z"/>
  </g>
  <g>
    <path class="cls-1" d="m.98,19.03c.01-.09.02-.2.02-.33v-1.24c0-.12,0-.23-.02-.34.11.05.19.09.34.16l.5.22c.46.2.71.53.71.93s-.26.54-.71.34l-.36-.16v.29c0,.14,0,.25.02.36l-.49-.22Zm.82-.67c.16.07.26.02.26-.13s-.09-.28-.26-.35l-.34-.15v.49l.34.15Z"/>
    <path class="cls-1" d="m3.89,20.33c-.01-.08-.04-.19-.11-.41-.07-.23-.1-.3-.16-.37-.05-.07-.11-.11-.18-.14l-.23-.1v.38c0,.16,0,.24.02.36l-.49-.22c.01-.1.02-.17.02-.34v-1.24c0-.14,0-.23-.02-.35.1.05.19.09.34.16l.6.27c.37.17.59.46.59.79,0,.16-.05.27-.14.32-.06.03-.11.03-.22.02.12.09.17.17.24.36.03.09.07.18.17.48.03.08.05.15.11.29l-.54-.24Zm-.33-1.26c.14.06.22.01.22-.12s-.07-.23-.22-.29l-.36-.16v.41l.36.16Z"/>
    <path class="cls-1" d="m6.06,21.31c-.1-.06-.18-.1-.38-.18l-.72-.32c-.17-.08-.24-.1-.34-.14.01-.09.02-.17.02-.33v-1.25c0-.14,0-.22-.02-.34.09.05.16.08.34.16l.73.33c.16.07.23.1.34.14v.43c-.11-.06-.19-.1-.34-.17l-.6-.27v.34l.5.22c.15.07.21.09.34.14v.43c-.11-.06-.19-.1-.34-.17l-.5-.22v.39l.59.26c.17.08.28.12.37.15v.43Z"/>
    <path class="cls-1" d="m7.09,21.19q.02.07.04.18c.03-.09.03-.1.04-.14l.33-.96c.03-.09.05-.15.05-.22l.54.24c-.03.05-.05.1-.11.23l-.49,1.17c-.04.1-.06.16-.07.22l-.6-.27c-.01-.06-.03-.15-.07-.28l-.49-1.6c-.05-.15-.07-.22-.11-.33l.54.24c0,.08.03.18.06.27l.33,1.25Z"/>
    <path class="cls-1" d="m8.77,20.59c-.01.09-.02.16-.02.33v1.23c0,.16,0,.25.02.35l-.51-.23c.01-.08.02-.18.02-.33v-1.23c0-.17,0-.24-.02-.35l.51.23Z"/>
    <path class="cls-1" d="m10.5,23.28c-.1-.06-.18-.1-.38-.19l-.72-.32c-.17-.08-.24-.1-.34-.14.01-.09.02-.17.02-.33v-1.25c0-.14,0-.22-.02-.34.09.05.16.08.34.16l.73.33c.16.07.23.1.34.14v.43c-.11-.06-.19-.1-.34-.17l-.6-.27v.34l.5.22c.15.07.21.09.34.14v.43c-.11-.06-.19-.1-.34-.17l-.5-.22v.39l.59.26c.17.08.28.12.37.15v.43Z"/>
    <path class="cls-1" d="m12.15,24c0-.08-.03-.17-.05-.27l-.17-.75c-.02-.1-.04-.21-.06-.38-.01.09-.04.22-.07.32l-.17.6c-.03.1-.04.16-.05.22l-.46-.2c-.01-.07-.02-.13-.06-.27l-.37-1.54c-.03-.13-.06-.25-.09-.32l.52.23c0,.08.01.16.03.27l.15.76s.02.15.05.35c.03-.18.05-.25.06-.3l.18-.63c.03-.09.04-.16.05-.22l.41.18c0,.06.02.13.05.26l.19.79c.02.08.03.16.06.36t.02-.13s.02-.15.03-.18l.14-.62c.02-.1.03-.16.03-.24l.52.23c-.02.05-.06.15-.09.25l-.37,1.21c-.03.09-.05.17-.06.22l-.46-.2Z"/>
  </g>
  <polygon class="cls-1" points="15.16 22.94 .59 16.45 .59 10.67 15.16 17.16 15.16 22.94"/>
  <polygon class="cls-1" points="13.3 26.71 .59 21.05 .59 16.81 13.3 22.46 13.3 26.71"/>
</svg>